<svg width="1440" height="960" viewBox="0 0 1440 960" fill="none" xmlns="http://www.w3.org/2000/svg">
  <rect width="1440" height="960" fill="#F6F7F5"/>

  <rect x="64" y="40" width="1312" height="64" rx="8" fill="#FFFFFF" stroke="#E2E5E1"/>
  <text x="96" y="80" fill="#202522" font-family="Inter, Arial, sans-serif" font-size="21" font-weight="800">Flash Cards</text>
  <text x="1048" y="80" fill="#66706A" font-family="Inter, Arial, sans-serif" font-size="15" font-weight="700">Deck</text>
  <text x="1136" y="80" fill="#202522" font-family="Inter, Arial, sans-serif" font-size="15" font-weight="800">Add card</text>
  <text x="1248" y="80" fill="#66706A" font-family="Inter, Arial, sans-serif" font-size="15" font-weight="700">Tags</text>

  <text x="96" y="170" fill="#66706A" font-family="Inter, Arial, sans-serif" font-size="13" font-weight="800">NEW CARD</text>
  <text x="96" y="232" fill="#202522" font-family="Inter, Arial, sans-serif" font-size="58" font-weight="800">Add a card</text>
  <text x="96" y="274" fill="#66706A" font-family="Inter, Arial, sans-serif" font-size="20">Create the question, answer, and category in one focused view.</text>

  <rect x="96" y="332" width="756" height="500" rx="8" fill="#FFFFFF" stroke="#E2E5E1"/>
  <text x="136" y="392" fill="#202522" font-family="Inter, Arial, sans-serif" font-size="15" font-weight="800">Question</text>
  <rect x="136" y="416" width="676" height="58" rx="8" fill="#FDFEFC" stroke="#C7CEC9"/>
  <text x="160" y="452" fill="#87908B" font-family="Inter, Arial, sans-serif" font-size="17">What is a resolver?</text>

  <text x="136" y="532" fill="#202522" font-family="Inter, Arial, sans-serif" font-size="15" font-weight="800">Answer</text>
  <rect x="136" y="556" width="676" height="128" rx="8" fill="#FDFEFC" stroke="#C7CEC9"/>
  <text x="160" y="596" fill="#87908B" font-family="Inter, Arial, sans-serif" font-size="17">The function that returns data for a GraphQL field.</text>

  <text x="136" y="734" fill="#202522" font-family="Inter, Arial, sans-serif" font-size="15" font-weight="800">Category</text>
  <rect x="238" y="712" width="98" height="32" rx="8" fill="#EADFD8"/>
  <text x="261" y="733" fill="#7A5446" font-family="Inter, Arial, sans-serif" font-size="13" font-weight="800">GraphQL</text>
  <rect x="348" y="712" width="86" height="32" rx="8" fill="#DCD6EA"/>
  <text x="370" y="733" fill="#5D5279" font-family="Inter, Arial, sans-serif" font-size="13" font-weight="800">Django</text>
  <rect x="446" y="712" width="78" height="32" rx="8" fill="#D3E3F0"/>
  <text x="467" y="733" fill="#365F78" font-family="Inter, Arial, sans-serif" font-size="13" font-weight="800">React</text>

  <rect x="136" y="784" width="132" height="48" rx="8" fill="#ADC8C1"/>
  <text x="169" y="815" fill="#173D36" font-family="Inter, Arial, sans-serif" font-size="15" font-weight="800">Save</text>
  <rect x="284" y="784" width="100" height="48" rx="8" fill="#FFFFFF" stroke="#D8DDD9"/>
  <text x="316" y="815" fill="#48524C" font-family="Inter, Arial, sans-serif" font-size="15" font-weight="800">Clear</text>

  <rect x="904" y="332" width="440" height="500" rx="8" fill="#202522"/>
  <text x="944" y="392" fill="#C9D8D3" font-family="Inter, Arial, sans-serif" font-size="13" font-weight="800">PREVIEW</text>
  <rect x="944" y="432" width="360" height="236" rx="8" fill="#FFFFFF"/>
  <rect x="976" y="464" width="98" height="30" rx="8" fill="#EADFD8"/>
  <text x="999" y="484" fill="#7A5446" font-family="Inter, Arial, sans-serif" font-size="13" font-weight="800">GraphQL</text>
  <text x="976" y="552" fill="#202522" font-family="Inter, Arial, sans-serif" font-size="27" font-weight="800">What is a resolver?</text>
  <text x="976" y="606" fill="#66706A" font-family="Inter, Arial, sans-serif" font-size="17">The saved answer sits behind reveal.</text>
  <rect x="944" y="704" width="360" height="82" rx="8" fill="#2B312D"/>
  <text x="976" y="754" fill="#A9B2AD" font-family="Inter, Arial, sans-serif" font-size="16">Keep it short enough to say aloud.</text>
</svg>
