<svg width="1440" height="960" viewBox="0 0 1440 960" fill="none" xmlns="http://www.w3.org/2000/svg">
  <rect width="1440" height="960" fill="#F6F7F5"/>

  <rect x="64" y="40" width="1312" height="64" rx="8" fill="#FFFFFF" stroke="#E2E5E1"/>
  <text x="96" y="80" fill="#202522" font-family="Inter, Arial, sans-serif" font-size="21" font-weight="800">Flash Cards</text>
  <text x="1048" y="80" fill="#66706A" font-family="Inter, Arial, sans-serif" font-size="15" font-weight="700">Deck</text>
  <text x="1136" y="80" fill="#66706A" font-family="Inter, Arial, sans-serif" font-size="15" font-weight="700">Add card</text>
  <text x="1248" y="80" fill="#202522" font-family="Inter, Arial, sans-serif" font-size="15" font-weight="800">Tags</text>

  <text x="96" y="170" fill="#66706A" font-family="Inter, Arial, sans-serif" font-size="13" font-weight="800">CATEGORY SETUP</text>
  <text x="96" y="232" fill="#202522" font-family="Inter, Arial, sans-serif" font-size="58" font-weight="800">Add a tag</text>
  <text x="96" y="274" fill="#66706A" font-family="Inter, Arial, sans-serif" font-size="20">Use a small set of muted colors so cards stay easy to scan.</text>

  <rect x="96" y="332" width="560" height="412" rx="8" fill="#FFFFFF" stroke="#E2E5E1"/>
  <text x="136" y="392" fill="#202522" font-family="Inter, Arial, sans-serif" font-size="15" font-weight="800">Name</text>
  <rect x="136" y="416" width="480" height="58" rx="8" fill="#FDFEFC" stroke="#C7CEC9"/>
  <text x="160" y="452" fill="#87908B" font-family="Inter, Arial, sans-serif" font-size="17">Databases</text>

  <text x="136" y="532" fill="#202522" font-family="Inter, Arial, sans-serif" font-size="15" font-weight="800">Color</text>
  <rect x="136" y="560" width="64" height="48" rx="8" fill="#EADFD8" stroke="#7A5446" stroke-width="2"/>
  <rect x="216" y="560" width="64" height="48" rx="8" fill="#DCD6EA"/>
  <rect x="296" y="560" width="64" height="48" rx="8" fill="#D3E3F0"/>
  <rect x="376" y="560" width="64" height="48" rx="8" fill="#C7D8B8"/>
  <rect x="456" y="560" width="64" height="48" rx="8" fill="#E8DFAE"/>

  <rect x="136" y="660" width="124" height="48" rx="8" fill="#ADC8C1"/>
  <text x="168" y="691" fill="#173D36" font-family="Inter, Arial, sans-serif" font-size="15" font-weight="800">Save</text>
  <rect x="276" y="660" width="100" height="48" rx="8" fill="#FFFFFF" stroke="#D8DDD9"/>
  <text x="308" y="691" fill="#48524C" font-family="Inter, Arial, sans-serif" font-size="15" font-weight="800">Clear</text>

  <rect x="708" y="332" width="636" height="412" rx="8" fill="#FFFFFF" stroke="#E2E5E1"/>
  <text x="748" y="392" fill="#202522" font-family="Inter, Arial, sans-serif" font-size="24" font-weight="800">Tag library</text>
  <text x="748" y="426" fill="#66706A" font-family="Inter, Arial, sans-serif" font-size="17">Create once, reuse when adding or editing cards.</text>

  <rect x="748" y="488" width="126" height="42" rx="8" fill="#EADFD8"/>
  <text x="780" y="515" fill="#7A5446" font-family="Inter, Arial, sans-serif" font-size="15" font-weight="800">GraphQL</text>
  <rect x="890" y="488" width="112" height="42" rx="8" fill="#DCD6EA"/>
  <text x="922" y="515" fill="#5D5279" font-family="Inter, Arial, sans-serif" font-size="15" font-weight="800">Django</text>
  <rect x="1018" y="488" width="100" height="42" rx="8" fill="#D3E3F0"/>
  <text x="1049" y="515" fill="#365F78" font-family="Inter, Arial, sans-serif" font-size="15" font-weight="800">React</text>
  <rect x="1134" y="488" width="88" height="42" rx="8" fill="#C7D8B8"/>
  <text x="1160" y="515" fill="#4C633E" font-family="Inter, Arial, sans-serif" font-size="15" font-weight="800">SQL</text>

  <line x1="748" y1="588" x2="1304" y2="588" stroke="#E8EBE7"/>
  <rect x="748" y="628" width="178" height="44" rx="8" fill="#F6F7F5" stroke="#D8DDD9"/>
  <text x="782" y="656" fill="#48524C" font-family="Inter, Arial, sans-serif" font-size="15" font-weight="800">Edit selected</text>
</svg>
